<svg xmlns="http://www.w3.org/2000/svg" xmlns:xlink="http://www.w3.org/1999/xlink" width="202.5" height="60" viewBox="0 0 202.5 60"><defs><style>.a,.d{fill:none;}.b{clip-path:url(#a);}.c{fill:#fff;}.d{stroke:#fff;stroke-miterlimit:10;stroke-width:0.054px;}.e{clip-path:url(#b);}.f{clip-path:url(#c);}.g{fill:#32bbff;}.h{clip-path:url(#d);}.i{fill:#ffd500;}.j{clip-path:url(#e);}.k{fill:url(#f);}.l{clip-path:url(#g);}.m{fill:#29cc5e;}</style><clipPath id="a"><path class="a" d="M0,0H202.5V60H0Z"/></clipPath><clipPath id="b"><path class="a" d="M0,60H202.5V0H0Z"/></clipPath><clipPath id="c"><path class="a" d="M0,2.1V35.25a2.967,2.967,0,0,0,.75,2.1h0l.15.15L19.5,18.9v-.3L.6,0A2.931,2.931,0,0,0,0,2.1"/></clipPath><clipPath id="d"><path class="a" d="M0,6.15V6.6l6.15,6.15,7.5-4.05c2.1-1.2,2.1-3.15,0-4.35h0L6.3.15,6.15,0Z"/></clipPath><clipPath id="e"><path class="a" d="M0,18.75c.75.75,1.8.75,3.15.15h0L25.05,6.3,18.75,0Z"/></clipPath><linearGradient id="f" x1="0.863" y1="0.177" x2="-0.5" y2="1.943" gradientUnits="objectBoundingBox"><stop offset="0" stop-color="#ff3a44"/><stop offset="1" stop-color="#c31162"/></linearGradient><clipPath id="g"><path class="a" d="M0,.643l18.75,18.6,6.3-6.3L3.15.493A3.419,3.419,0,0,0,1.508,0h0A2.073,2.073,0,0,0,0,.643"/></clipPath></defs><g transform="translate(0 0)"><path class="a" d="M0,0H202.5V60H0Z"/><g class="b"><path d="M195,60H7.5A7.427,7.427,0,0,1,0,52.5V7.5A7.427,7.427,0,0,1,7.5,0H195a7.427,7.427,0,0,1,7.5,7.5v45A7.427,7.427,0,0,1,195,60"/></g></g><path class="c" d="M45,9.3a4.4,4.4,0,0,1-3.3-1.35,4.394,4.394,0,0,1-1.35-3.3,4.4,4.4,0,0,1,1.35-3.3,4.709,4.709,0,0,1,6.6,0,4.4,4.4,0,0,1,1.35,3.3,4.394,4.394,0,0,1-1.35,3.3A4.4,4.4,0,0,1,45,9.3ZM45,1.05A2.984,2.984,0,0,0,42.6,2.1,3.632,3.632,0,0,0,41.55,4.65,3.083,3.083,0,0,0,42.6,7.2,3.55,3.55,0,0,0,45,8.25,2.985,2.985,0,0,0,47.4,7.2,3.631,3.631,0,0,0,48.45,4.65,3.084,3.084,0,0,0,47.4,2.1,3.553,3.553,0,0,0,45,1.05ZM4.65,9.3a4.4,4.4,0,0,1-3.3-1.35A4.394,4.394,0,0,1,0,4.65a4.4,4.4,0,0,1,1.35-3.3A4.4,4.4,0,0,1,4.65,0a4.018,4.018,0,0,1,1.8.45A3.217,3.217,0,0,1,7.8,1.5l-.751.75A2.8,2.8,0,0,0,4.65,1.2a2.985,2.985,0,0,0-2.4,1.05A3.083,3.083,0,0,0,1.2,4.8,3.084,3.084,0,0,0,2.25,7.35,3.927,3.927,0,0,0,4.65,8.4,3.276,3.276,0,0,0,7.2,7.35a2.5,2.5,0,0,0,.75-1.8H4.65V4.35H9v.6a4.074,4.074,0,0,1-1.05,3A4.394,4.394,0,0,1,4.65,9.3Zm47.7-.148H51.3v-9h1.35L57,7.2V.15h1.2v9H57L52.35,1.8V9.15Zm-18.45,0H32.85V1.2H30.3V.15h6.15V1.2H33.9v7.95Zm-4.95,0h-1.2v-9h1.2v9Zm-8.1,0h-1.2V1.2H17.1V.15h6.3V1.2H20.85v7.95Zm-4.95,0H10.65v-9H15.9V1.2H11.85V4.05H15.6V5.1H11.85V7.95H15.9v1.2Z" transform="translate(62.1 10.35)"/><path class="d" d="M45,9.3a4.4,4.4,0,0,1-3.3-1.35,4.394,4.394,0,0,1-1.35-3.3,4.4,4.4,0,0,1,1.35-3.3,4.709,4.709,0,0,1,6.6,0,4.4,4.4,0,0,1,1.35,3.3,4.394,4.394,0,0,1-1.35,3.3A4.4,4.4,0,0,1,45,9.3ZM45,1.05A2.984,2.984,0,0,0,42.6,2.1,3.632,3.632,0,0,0,41.55,4.65,3.083,3.083,0,0,0,42.6,7.2,3.55,3.55,0,0,0,45,8.25,2.985,2.985,0,0,0,47.4,7.2,3.631,3.631,0,0,0,48.45,4.65,3.084,3.084,0,0,0,47.4,2.1,3.553,3.553,0,0,0,45,1.05ZM4.65,9.3a4.4,4.4,0,0,1-3.3-1.35A4.394,4.394,0,0,1,0,4.65a4.4,4.4,0,0,1,1.35-3.3A4.4,4.4,0,0,1,4.65,0a4.018,4.018,0,0,1,1.8.45A3.217,3.217,0,0,1,7.8,1.5l-.751.75A2.8,2.8,0,0,0,4.65,1.2a2.985,2.985,0,0,0-2.4,1.05A3.083,3.083,0,0,0,1.2,4.8,3.084,3.084,0,0,0,2.25,7.35,3.927,3.927,0,0,0,4.65,8.4,3.276,3.276,0,0,0,7.2,7.35a2.5,2.5,0,0,0,.75-1.8H4.65V4.35H9v.6a4.074,4.074,0,0,1-1.05,3A4.394,4.394,0,0,1,4.65,9.3Zm47.7-.148H51.3v-9h1.35L57,7.2V.15h1.2v9H57L52.35,1.8V9.15Zm-18.45,0H32.85V1.2H30.3V.15h6.15V1.2H33.9v7.95Zm-4.95,0h-1.2v-9h1.2v9Zm-8.1,0h-1.2V1.2H17.1V.15h6.3V1.2H20.85v7.95Zm-4.95,0H10.65v-9H15.9V1.2H11.85V4.05H15.6V5.1H11.85V7.95H15.9v1.2Z" transform="translate(62.1 10.35)"/><path class="a" d="M0,60H202.5V0H0Z"/><g class="e"><path class="c" d="M54.45,25.35a6.234,6.234,0,0,1-5.7-3.75l2.4-1.05A3.314,3.314,0,0,0,54.3,22.8c2.161,0,3.451-1.4,3.451-3.749v-.9H57.6a4.338,4.338,0,0,1-3.3,1.5,6.065,6.065,0,0,1-4.312-1.8,6.31,6.31,0,0,1-1.838-4.5,6.5,6.5,0,0,1,1.894-4.575A6.064,6.064,0,0,1,54.3,6.9,4.944,4.944,0,0,1,57.75,8.4V7.35h2.7v11.4a6.793,6.793,0,0,1-1.763,5.044A5.885,5.885,0,0,1,54.45,25.35Zm0-15.9a3.719,3.719,0,0,0-3.6,3.9,3.719,3.719,0,0,0,3.6,3.9,3.614,3.614,0,0,0,3.45-3.9A3.614,3.614,0,0,0,54.45,9.45Zm64.8,15.6H116.4l2.85-6.3L114.3,7.35h3l3.3,8.1h.15l3.15-8.1h3l-7.65,17.7ZM72.9,19.95a6.2,6.2,0,0,1-4.5-1.875A6.524,6.524,0,0,1,66.6,13.5a6.667,6.667,0,0,1,1.763-4.688A5.751,5.751,0,0,1,78,11.1l.3.751-8.55,3.6A3.248,3.248,0,0,0,72.9,17.4a3.616,3.616,0,0,0,3.15-1.8l2.1,1.5A6.126,6.126,0,0,1,72.9,19.95Zm-.3-10.5a3.634,3.634,0,0,0-3.3,3.75L75,10.8A2.651,2.651,0,0,0,72.6,9.45ZM40.5,19.95a6.4,6.4,0,0,1-6.45-6.45A6.309,6.309,0,0,1,40.5,7.05a6.512,6.512,0,0,1,4.575,1.763A6.343,6.343,0,0,1,46.95,13.5,6.309,6.309,0,0,1,40.5,19.95Zm0-10.5a3.719,3.719,0,0,0-3.6,3.9,3.612,3.612,0,1,0,7.2,0A3.631,3.631,0,0,0,40.5,9.45ZM26.55,19.95A6.4,6.4,0,0,1,20.1,13.5a6.309,6.309,0,0,1,6.45-6.45,6.512,6.512,0,0,1,4.575,1.763A6.343,6.343,0,0,1,33,13.5,6.309,6.309,0,0,1,26.55,19.95Zm0-10.5a3.719,3.719,0,0,0-3.6,3.9,3.612,3.612,0,1,0,7.2,0A3.631,3.631,0,0,0,26.55,9.45ZM10.05,19.8A10.11,10.11,0,0,1,0,9.9,10.11,10.11,0,0,1,10.05,0,9.555,9.555,0,0,1,16.8,2.7L14.85,4.65A7.368,7.368,0,0,0,9.9,2.7,6.948,6.948,0,0,0,4.913,4.781,7.233,7.233,0,0,0,2.85,9.9a7.281,7.281,0,0,0,2.006,5.119A6.951,6.951,0,0,0,9.9,17.1a6.65,6.65,0,0,0,4.95-1.95,5.727,5.727,0,0,0,1.5-3.45H9.9V9h9.3a5.646,5.646,0,0,1,.15,1.65,9.08,9.08,0,0,1-2.4,6.3A8.656,8.656,0,0,1,10.05,19.8ZM108,19.65a5.046,5.046,0,0,1-3.225-1.144,3.951,3.951,0,0,1-1.425-3.056,3.7,3.7,0,0,1,1.688-3.113,6.579,6.579,0,0,1,3.712-1.088,5.92,5.92,0,0,1,2.85.75V11.85a2.475,2.475,0,0,0-.994-1.763A3.326,3.326,0,0,0,108.6,9.45a2.623,2.623,0,0,0-2.551,1.35L103.5,9.75a4.122,4.122,0,0,1,1.969-2.156A6.368,6.368,0,0,1,108.45,6.9a6.211,6.211,0,0,1,4.069,1.387,5.578,5.578,0,0,1,1.932,3.862v7.2h-2.7v-1.5h-.15A4.224,4.224,0,0,1,108,19.65Zm.9-6c-1.45,0-3,.512-3,1.949,0,1.211,1.346,1.651,2.25,1.651a3.487,3.487,0,0,0,3.3-3l-.223-.09A5.409,5.409,0,0,0,108.9,13.65Zm-7.35,5.7H98.7V.6h2.849V19.349Zm-14.4,0H84.3V.6h6.75a6.487,6.487,0,0,1,4.256,1.575A5.623,5.623,0,0,1,97.2,6.45a5.623,5.623,0,0,1-1.894,4.275A6.487,6.487,0,0,1,91.05,12.3h-3.9v7.049Zm0-16.2V9.6H91.2a3.405,3.405,0,0,0,3.3-3.3,3.214,3.214,0,0,0-.862-2.081A3.253,3.253,0,0,0,91.2,3.15ZM65.1,19.35H62.25V.6H65.1V19.349Z" transform="translate(61.65 25.65)"/></g><g transform="translate(15 11.25)"><path class="a" d="M0,2.1V35.25a2.967,2.967,0,0,0,.75,2.1h0l.15.15L19.5,18.9v-.3L.6,0A2.931,2.931,0,0,0,0,2.1"/><g class="f"><path class="g" d="M0,2.1V35.25a2.967,2.967,0,0,0,.75,2.1h0l.15.15L19.5,18.9v-.3L.6,0A2.931,2.931,0,0,0,0,2.1"/></g></g><g transform="translate(34.35 23.7)"><path class="a" d="M0,6.15V6.6l6.15,6.15,7.5-4.05c2.1-1.2,2.1-3.15,0-4.35h0L6.3.15,6.15,0Z"/><g class="h"><path class="i" d="M0,6.15V6.6l6.15,6.15,7.5-4.05c2.1-1.2,2.1-3.15,0-4.35h0L6.3.15,6.15,0Z"/></g></g><g transform="translate(15.6 30)"><path class="a" d="M0,18.75c.75.75,1.8.75,3.15.15h0L25.05,6.3,18.75,0Z"/><g class="j"><path class="k" d="M0,18.75c.75.75,1.8.75,3.15.15h0L25.05,6.3,18.75,0Z"/></g></g><g transform="translate(15.6 10.757)"><path class="a" d="M0,.643l18.75,18.6,6.3-6.3L3.15.493A3.419,3.419,0,0,0,1.508,0h0A2.073,2.073,0,0,0,0,.643"/><g class="l"><path class="m" d="M0,.643l18.75,18.6,6.3-6.3L3.15.493A3.419,3.419,0,0,0,1.508,0h0A2.073,2.073,0,0,0,0,.643"/></g></g><g transform="translate(15 10.721)"><path d="M24.9,0,3.15,12.3a2.453,2.453,0,0,1-3,0L0,12.45l.15.15a2.453,2.453,0,0,0,3,0Z" transform="translate(0.6 25.429)"/><path d="M.587,18.418H.573A2.352,2.352,0,0,1,0,16.928a2.926,2.926,0,0,0,.586,1.489ZM25.623,6.268h0l-.15-.15,7.5-4.2C34.01,1.227,34.458.653,34.472,0a2.519,2.519,0,0,1-1.5,2.068l-7.35,4.2Z" transform="translate(0.027 19.311)"/><path class="c" d="M3.75.679,33,17.329c.9.6,1.5,1.2,1.5,1.95a2.493,2.493,0,0,0-1.5-2.1L3.75.529C1.65-.671,0,.229,0,2.629v.15c0-2.25,1.65-3.3,3.75-2.1"/></g></svg>