<svg xmlns="http://www.w3.org/2000/svg" xmlns:xlink="http://www.w3.org/1999/xlink" width="204" height="61" viewBox="0 0 204 61"><defs><style>.a{fill:none;}.b{fill:#fff;stroke:#cfcfcf;stroke-miterlimit:10;}.c{clip-path:url(#a);}</style><clipPath id="a"><path class="a" d="M0,60H202.5V0H0Z"/></clipPath></defs><g transform="translate(0.5 0.5)"><rect class="b" width="203" height="60" rx="8"/><path d="M23.079,9.88A7.738,7.738,0,0,1,26.751,3.4,7.959,7.959,0,0,0,20.523.028C17.907-.248,15.363,1.6,14.031,1.6,12.675,1.6,10.611.064,8.4.1A8.275,8.275,0,0,0,1.431,4.36C-1.581,9.58.663,17.26,3.555,21.484c1.452,2.064,3.132,4.38,5.352,4.3,2.16-.084,2.976-1.38,5.58-1.38s3.348,1.38,5.6,1.332c2.328-.036,3.78-2.076,5.184-4.164a16.927,16.927,0,0,0,2.364-4.824,7.484,7.484,0,0,1-4.56-6.864" transform="translate(28.347 18.752)"/><path d="M5.089,5.448A7.613,7.613,0,0,0,6.829,0a7.719,7.719,0,0,0-5,2.592A7.3,7.3,0,0,0,.037,7.836,6.4,6.4,0,0,0,5.089,5.448" transform="translate(42.077 10.56)"/><path d="M2.94,17.724H0L5.7,0H9.228l5.724,17.722H11.928l-1.656-5.207H4.512L2.94,17.724ZM7.332,2.376c-.156.656-.429,1.767-.841,3.336l-1.476,4.62H9.78l-1.5-4.62c-.175-.54-.5-1.756-.888-3.336Z" transform="translate(67.818 26.508)"/><path d="M2.952,18.228H.108V4.464C.108,3.091.073,1.717,0,.264H2.5l.157,2.029H2.7A4.752,4.752,0,0,1,7.008,0a4.767,4.767,0,0,1,3.767,1.788A6.917,6.917,0,0,1,12.312,6.5a7.233,7.233,0,0,1-1.776,5.148A5.192,5.192,0,0,1,6.6,13.332,3.917,3.917,0,0,1,2.952,11.52v6.707ZM6.108,2.268a3.028,3.028,0,0,0-1.908.7A3.225,3.225,0,0,0,3.084,4.788a3.851,3.851,0,0,0-.132.864V7.788A3.434,3.434,0,0,0,3.8,10.14a2.838,2.838,0,0,0,2.219.959,2.942,2.942,0,0,0,2.5-1.236A5.393,5.393,0,0,0,9.42,6.6,5.179,5.179,0,0,0,8.58,3.528,2.916,2.916,0,0,0,6.108,2.268Z" transform="translate(85.11 31.188)"/><path d="M2.952,18.228H.108V4.464C.108,3.091.073,1.717,0,.264H2.5l.157,2.029H2.7A4.752,4.752,0,0,1,7.008,0a4.767,4.767,0,0,1,3.767,1.788A6.917,6.917,0,0,1,12.312,6.5a7.233,7.233,0,0,1-1.776,5.148A5.192,5.192,0,0,1,6.6,13.332,3.917,3.917,0,0,1,2.952,11.52v6.707ZM6.108,2.268a3.028,3.028,0,0,0-1.908.7A3.263,3.263,0,0,0,3.084,4.788a3.851,3.851,0,0,0-.132.864V7.788A3.434,3.434,0,0,0,3.8,10.14a2.838,2.838,0,0,0,2.219.959,2.913,2.913,0,0,0,2.5-1.236A5.323,5.323,0,0,0,9.42,6.6,5.179,5.179,0,0,0,8.58,3.528,2.916,2.916,0,0,0,6.108,2.268Z" transform="translate(99.798 31.188)"/><path d="M10.98,13.008a4.746,4.746,0,0,1-1.572,3.684A6.977,6.977,0,0,1,4.584,18.24,8.441,8.441,0,0,1,0,17.136l.66-2.364a7.971,7.971,0,0,0,4.1,1.1,3.865,3.865,0,0,0,2.5-.72,2.352,2.352,0,0,0,.9-1.932,2.5,2.5,0,0,0-.732-1.812A6.852,6.852,0,0,0,4.98,10.044C1.848,8.88.3,7.188.3,4.968A4.5,4.5,0,0,1,1.944,1.392,6.521,6.521,0,0,1,6.3,0a8.563,8.563,0,0,1,4.02.84l-.72,2.3a7.083,7.083,0,0,0-3.408-.816A3.536,3.536,0,0,0,3.84,3.06a2.13,2.13,0,0,0-.708,1.608A2.154,2.154,0,0,0,3.948,6.4a9.155,9.155,0,0,0,2.58,1.368,8.65,8.65,0,0,1,3.36,2.16,4.49,4.49,0,0,1,1.092,3.084" transform="translate(117.57 26.256)"/><path d="M7.776,5.316H4.644v6.2c0,1.572.552,2.364,1.656,2.364a5.267,5.267,0,0,0,1.26-.132l.084,2.16a6.585,6.585,0,0,1-2.208.312,3.4,3.4,0,0,1-2.628-1.032,5.009,5.009,0,0,1-.948-3.444V5.3H0V3.18H1.86V.84L4.644,0V3.18H7.776V5.316" transform="translate(130.182 28.272)"/><path d="M6.156,13.32a5.774,5.774,0,0,1-4.488-1.86A6.78,6.78,0,0,1,0,6.756,7,7,0,0,1,1.716,1.9,6.011,6.011,0,0,1,6.36,0a5.856,5.856,0,0,1,4.523,1.872A6.693,6.693,0,0,1,12.516,6.54a7.054,7.054,0,0,1-1.68,4.836A6.041,6.041,0,0,1,6.156,13.32ZM6.264,2.064a2.839,2.839,0,0,0-2.6,1.525A5.715,5.715,0,0,0,2.9,6.66,5.714,5.714,0,0,0,3.66,9.672,2.914,2.914,0,0,0,8.8,9.648,5.774,5.774,0,0,0,9.576,6.6,5.693,5.693,0,0,0,8.82,3.588,2.828,2.828,0,0,0,6.264,2.064Z" transform="translate(139.53 31.2)"/><path d="M6.852,2.76a5.261,5.261,0,0,0-.9-.072A2.679,2.679,0,0,0,3.636,3.816a4.281,4.281,0,0,0-.708,2.52v6.708H.084V4.284C.084,2.808.06,1.464,0,.264H2.472L2.58,2.712h.084A4.356,4.356,0,0,1,4.08.684,3.454,3.454,0,0,1,6.132,0,5.977,5.977,0,0,1,6.84.048L6.852,2.76" transform="translate(154.434 31.188)"/><path d="M6.359,13.308a6.224,6.224,0,0,1-4.667-1.752A6.483,6.483,0,0,1,0,6.864,7.356,7.356,0,0,1,1.584,2.052,5.46,5.46,0,0,1,6.048,0a4.748,4.748,0,0,1,4.176,2.052,6.9,6.9,0,0,1,1.139,4.032,6.512,6.512,0,0,1-.107,1.284H2.736A3.712,3.712,0,0,0,3.972,10.26a4.278,4.278,0,0,0,2.784.888,9.579,9.579,0,0,0,3.444-.6l.445,1.968A10.725,10.725,0,0,1,6.359,13.308ZM5.844,1.98A2.7,2.7,0,0,0,3.588,3.132,4.265,4.265,0,0,0,2.748,5.34l5.9.013A3.83,3.83,0,0,0,8.1,3.168,2.484,2.484,0,0,0,5.844,1.98Z" transform="translate(162.618 31.152)"/><path d="M1.44,8.713H0L2.8,0H4.524L7.355,8.711H5.868L5.052,6.156H2.22L1.44,8.712ZM3.6,1.152h0c-.031.119-.064.254-.1.408-.08.329-.18.738-.319,1.236l-.72,2.28H4.8L4.068,2.8C4,2.59,3.879,2.117,3.69,1.4l-.066-.249Z" transform="translate(68.874 11.46)"/><path d="M6.036,0,3.66,6.288H2.3L0,0H1.5L2.568,3.324c.18.552.336,1.08.456,1.584H3.06c.108-.456.264-.984.456-1.584L4.572,0H6.036" transform="translate(77.202 13.884)"/><path d="M1.92,6.54A1.823,1.823,0,0,1,0,4.692C0,3.175,1.3,2.34,3.672,2.34V2.22c0-.821-.44-1.237-1.308-1.237A2.927,2.927,0,0,0,.72,1.452L.432.54A4.023,4.023,0,0,1,2.592,0C4.233,0,5.064.876,5.064,2.6V4.92a8.265,8.265,0,0,0,.1,1.5L3.9,6.4l-.108-.72H3.756A2.169,2.169,0,0,1,1.92,6.54ZM3.708,3.264c-1.588,0-2.328.4-2.328,1.272a.893.893,0,0,0,.96.984A1.329,1.329,0,0,0,3.708,4.236Z" transform="translate(84.402 13.776)"/><path class="a" d="M0,60H202.5V0H0Z"/><g class="c"><path d="M1.548,8.976H.156V2.7H1.548V8.975ZM.828,1.668A.816.816,0,0,1,0,.828.822.822,0,0,1,.852,0a.87.87,0,0,1,.632.255A.783.783,0,0,1,1.7.828.813.813,0,0,1,.828,1.668Z" transform="translate(91.746 11.184)"/><path d="M0,9.156H1.392V0H0Z" transform="translate(95.778 11.004)"/><path d="M1.92,6.552A1.823,1.823,0,0,1,0,4.7C0,3.187,1.3,2.352,3.672,2.352v-.12C3.672,1.412,3.232,1,2.364,1A2.92,2.92,0,0,0,.72,1.464L.432.54A4.023,4.023,0,0,1,2.592,0C4.232,0,5.064.876,5.064,2.6V4.92a9.816,9.816,0,0,0,.084,1.5H3.9V6.408l-.108-.72H3.756A2.169,2.169,0,0,1,1.92,6.552ZM3.708,3.276c-1.588,0-2.328.4-2.328,1.272a.894.894,0,0,0,.96.985A1.33,1.33,0,0,0,3.708,4.248Z" transform="translate(99.198 13.764)"/><path d="M3.276,9.312A2.147,2.147,0,0,1,1.3,8.2H1.272l-.084.972H0c.032-.451.048-.989.048-1.692V0h1.4V3.8h.024a2.15,2.15,0,0,1,2-1.044c1.512,0,2.568,1.308,2.568,3.18A3.793,3.793,0,0,1,5.26,8.355,2.538,2.538,0,0,1,3.276,9.312Zm-.288-5.46A1.608,1.608,0,0,0,1.452,5.52v1.1A1.527,1.527,0,0,0,2.964,8.2c1.029,0,1.669-.846,1.669-2.209C4.632,4.71,3.972,3.852,2.988,3.852Z" transform="translate(106.65 11.004)"/><path d="M0,9.156H1.392V0H0Z" transform="translate(114.762 11.004)"/><path d="M3.132,6.54A2.923,2.923,0,0,1,0,3.372,3.664,3.664,0,0,1,.818.966,2.766,2.766,0,0,1,2.976,0C4.565,0,5.592,1.173,5.592,2.988a2.5,2.5,0,0,1-.059.636H1.344a1.807,1.807,0,0,0,1.98,1.859,4.741,4.741,0,0,0,1.692-.3l.216.972A5.071,5.071,0,0,1,3.132,6.54ZM2.88.972A1.647,1.647,0,0,0,1.356,2.628h2.9a1.872,1.872,0,0,0-.371-1.211A1.264,1.264,0,0,0,2.88.972Z" transform="translate(118.218 13.74)"/><path d="M3.024,6.552a2.894,2.894,0,0,1-2.2-.917A3.392,3.392,0,0,1,0,3.324,3.06,3.06,0,0,1,3.132,0,2.958,2.958,0,0,1,6.156,3.216a3.449,3.449,0,0,1-.86,2.4A3.008,3.008,0,0,1,3.024,6.552Zm.06-5.532c-.99,0-1.656.907-1.656,2.256,0,1.314.676,2.232,1.643,2.232S4.716,4.554,4.716,3.24,4.033,1.02,3.084,1.02Z" transform="translate(129.186 13.764)"/><path d="M5.5,6.42H4.1V2.808c0-1.116-.432-1.668-1.272-1.668A1.444,1.444,0,0,0,1.44,2.676V6.408H.048V1.932C.048,1.38.036.78,0,.132H1.224l.06.972H1.32A2.259,2.259,0,0,1,3.312,0C4.632,0,5.5,1.008,5.5,2.652V6.42" transform="translate(137.346 13.752)"/><path d="M3.8,2.616H2.268V5.664c0,.78.276,1.164.816,1.164a3.054,3.054,0,0,0,.624-.06l.036,1.056a3.024,3.024,0,0,1-1.08.156c-1.1,0-1.752-.612-1.752-2.2V2.616H0V1.572H.912V.42L2.28,0V1.56H3.816V2.616" transform="translate(148.17 12.324)"/><path d="M5.448,9.168H4.056V5.58c0-1.128-.432-1.692-1.272-1.692A1.368,1.368,0,0,0,1.392,5.376v3.78H0V0H1.392V3.768h.024A2.111,2.111,0,0,1,3.3,2.748c1.332,0,2.148,1.032,2.148,2.676V9.168" transform="translate(153.918 11.004)"/><path d="M3.132,6.54A2.923,2.923,0,0,1,0,3.372,3.664,3.664,0,0,1,.818.966,2.766,2.766,0,0,1,2.976,0C4.565,0,5.592,1.173,5.592,2.988a2.5,2.5,0,0,1-.059.636H1.344a1.807,1.807,0,0,0,1.98,1.859,4.741,4.741,0,0,0,1.692-.3l.216.972A5.071,5.071,0,0,1,3.132,6.54ZM2.88.972A1.65,1.65,0,0,0,1.356,2.628h2.9a1.872,1.872,0,0,0-.371-1.211A1.264,1.264,0,0,0,2.88.972Z" transform="translate(160.962 13.74)"/></g></g></svg>