<svg xmlns="http://www.w3.org/2000/svg" xmlns:xlink="http://www.w3.org/1999/xlink" width="271.364" height="51" viewBox="0 0 271.364 51">
  <defs>
    <clipPath id="clip-path">
      <rect id="Rectangle_23" data-name="Rectangle 23" width="52" height="51" transform="translate(0 0)" fill="none"/>
    </clipPath>
    <linearGradient id="linear-gradient" x1="0.975" y1="1.301" x2="0.251" y2="1.957" gradientUnits="objectBoundingBox">
      <stop offset="0" stop-color="#14b0b6"/>
      <stop offset="0.817" stop-color="#86cdd3"/>
    </linearGradient>
    <linearGradient id="linear-gradient-2" x1="0.5" y1="-0.789" x2="0.5" y2="-1.545" xlink:href="#linear-gradient"/>
    <linearGradient id="linear-gradient-3" x1="0.5" y1="1.75" x2="0.5" y2="2.741" xlink:href="#linear-gradient"/>
    <linearGradient id="linear-gradient-4" x1="0.5" y1="-0.074" x2="0.5" y2="0.866" xlink:href="#linear-gradient"/>
    <linearGradient id="linear-gradient-5" x1="0.039" y1="-0.223" x2="0.791" y2="-0.905" xlink:href="#linear-gradient"/>
  </defs>
  <g id="Group_103" data-name="Group 103" transform="translate(0 0)">
    <g id="Group_102" data-name="Group 102">
      <g id="Group_101" data-name="Group 101" clip-path="url(#clip-path)">
        <g id="Group_100" data-name="Group 100">
          <path id="Path_204" data-name="Path 204" d="M7.068,4.354l10.871,7.887v9.188l-3.889,2.8L0,14.022Z" fill="url(#linear-gradient)"/>
          <path id="Path_205" data-name="Path 205" d="M31.989,31.069V51H20.011V39.805Z" fill="url(#linear-gradient-2)"/>
          <path id="Path_206" data-name="Path 206" d="M20.011,19.931V0H31.989V11.195Z" fill="url(#linear-gradient-3)"/>
          <path id="Path_207" data-name="Path 207" d="M44.932,4.354,52,14.022,7.068,46.646,0,36.978Z" fill="url(#linear-gradient-4)"/>
          <path id="Path_208" data-name="Path 208" d="M34.061,29.571l3.889-2.8L52,36.978l-7.068,9.668L34.061,38.759Z" fill="url(#linear-gradient-5)"/>
          <path id="Path_209" data-name="Path 209" d="M31.989,31.069V51H26V35.451Z" fill="#f1f1f2" opacity="0.3" style="isolation: isolate"/>
          <path id="Path_210" data-name="Path 210" d="M26,0h5.989V11.195L26,15.577Z" fill="#f1f1f2" opacity="0.3" style="isolation: isolate"/>
          <path id="Path_211" data-name="Path 211" d="M34.061,31.352V29.571l3.889-2.8L52,36.978l-3.548,4.834Z" fill="#f1f1f2" opacity="0.3" style="isolation: isolate"/>
          <path id="Path_212" data-name="Path 212" d="M17.939,19.648,3.548,9.188l3.52-4.834,10.871,7.887Z" fill="#f1f1f2" opacity="0.3" style="isolation: isolate"/>
          <path id="Path_213" data-name="Path 213" d="M48.473,9.194,52,14.014,7.073,46.645l-3.529-4.82Z" fill="#f1f1f2" opacity="0.3" style="isolation: isolate"/>
        </g>
      </g>
    </g>
    <path id="Path_214" data-name="Path 214" d="M78.76,13.04A9.975,9.975,0,0,1,85.6,15.2a7.608,7.608,0,0,1,2.48,6.12,7.682,7.682,0,0,1-2.48,6.12,10.1,10.1,0,0,1-6.84,2.12h-4.4V39H69.6V13.04Zm0,12.4a4.412,4.412,0,0,0,3.32-1.16,4.085,4.085,0,0,0,1.12-2.96,4.137,4.137,0,0,0-1.12-3,4.325,4.325,0,0,0-3.32-1.2h-4.4v8.32Zm18.247-2.72a6.327,6.327,0,0,1,5.84-3.68q3.84,0,5.64,2.36a9.866,9.866,0,0,1,1.84,6.24V39h-4.72V27.64a4.5,4.5,0,0,0-1.04-3.24,3.785,3.785,0,0,0-2.92-1.12,4.059,4.059,0,0,0-3.24,1.68,8.41,8.41,0,0,0-1.4,5.04v9h-4.72V11.56h4.72Zm25.927,4.92a22.432,22.432,0,0,1,5.36.76V26.48a4.478,4.478,0,0,0-.84-3,3.238,3.238,0,0,0-2.68-1,4.612,4.612,0,0,0-2.84.76,2.4,2.4,0,0,0-1,2.08h-5.16a5.264,5.264,0,0,1,2.32-4.8,12.318,12.318,0,0,1,6.56-1.48q6,0,7.76,4.2a8.8,8.8,0,0,1,.6,3.4V39h-4.12l-.36-2.6a6.246,6.246,0,0,1-5.76,3.16,8.519,8.519,0,0,1-5.84-1.84,5.764,5.764,0,0,1-1.92-4.44,4.721,4.721,0,0,1,2.12-4.16A9.984,9.984,0,0,1,122.934,27.64Zm5.36,3.76a16.854,16.854,0,0,0-4.4-.64q-3.84,0-3.84,2.56a2.464,2.464,0,0,0,.88,1.88,5.005,5.005,0,0,0,6-.52A4.824,4.824,0,0,0,128.294,31.4Zm15.644-8q1.761-4.2,5.28-4.2a6.863,6.863,0,0,1,1.72.28l-.08,4.72a10.476,10.476,0,0,0-2.2-.24q-4.719,0-4.72,6.52V39h-4.72V19.52h4.72Zm28.526-.16a6.67,6.67,0,0,1,6.6-4.2,6.57,6.57,0,0,1,5.4,2.36,9.561,9.561,0,0,1,1.84,6.24V39h-4.76V27.64a4.507,4.507,0,0,0-1.04-3.24,3.787,3.787,0,0,0-2.92-1.12,3.665,3.665,0,0,0-3.08,1.64,8.763,8.763,0,0,0-1.28,4.96V39H168.5V27.64a4.507,4.507,0,0,0-1.04-3.24,3.787,3.787,0,0,0-2.92-1.12,4.059,4.059,0,0,0-3.24,1.68A8.4,8.4,0,0,0,159.9,30v9h-4.72V19.56h4.12l.52,3.36a6.427,6.427,0,0,1,6.16-3.88,6.878,6.878,0,0,1,4.04,1.12A6.688,6.688,0,0,1,172.464,23.24Z"/>
    <path id="Path_215" data-name="Path 215" d="M201.8,12.52a12.925,12.925,0,0,1,4.16.6,9.185,9.185,0,0,1,3.04,1.6,9.56,9.56,0,0,1,3.28,5.72l-5.04.92a7.284,7.284,0,0,0-2-3.28,4.579,4.579,0,0,0-3.32-1.28,5.217,5.217,0,0,0-4.4,2.28,11.526,11.526,0,0,0-1.8,6.88,12.536,12.536,0,0,0,1.6,6.84,4.964,4.964,0,0,0,4.36,2.44,5.858,5.858,0,0,0,4.16-1.32,4.643,4.643,0,0,0,1.4-3.48h5.08a8.422,8.422,0,0,1-2.8,6.76,11.325,11.325,0,0,1-7.6,2.36,10.177,10.177,0,0,1-8.2-3.6q-3.081-3.679-3.08-10,0-6.4,3.16-10A10.161,10.161,0,0,1,201.8,12.52Zm21.756,15.12a22.426,22.426,0,0,1,5.36.76V26.48a4.478,4.478,0,0,0-.84-3,3.237,3.237,0,0,0-2.68-1,4.614,4.614,0,0,0-2.84.76,2.406,2.406,0,0,0-1,2.08h-5.16a5.266,5.266,0,0,1,2.32-4.8,12.321,12.321,0,0,1,6.56-1.48q6,0,7.76,4.2a8.8,8.8,0,0,1,.6,3.4V39h-4.12l-.36-2.6a6.246,6.246,0,0,1-5.76,3.16,8.521,8.521,0,0,1-5.84-1.84,5.764,5.764,0,0,1-1.92-4.44,4.721,4.721,0,0,1,2.12-4.16A9.986,9.986,0,0,1,223.554,27.64Zm5.36,3.76a16.854,16.854,0,0,0-4.4-.64q-3.84,0-3.84,2.56a2.467,2.467,0,0,0,.88,1.88,5.005,5.005,0,0,0,6-.52A4.82,4.82,0,0,0,228.914,31.4Zm15.645-8q1.759-4.2,5.28-4.2a6.876,6.876,0,0,1,1.72.28l-.08,4.72a10.483,10.483,0,0,0-2.2-.24q-4.721,0-4.72,6.52V39h-4.72V19.52h4.72Zm24.805-1.52a8.572,8.572,0,0,1,1.48,2.96,10.479,10.479,0,0,1,.52,3.08,17.9,17.9,0,0,1-.16,2.52h-12.56a6.768,6.768,0,0,0,1.16,3.84,3.794,3.794,0,0,0,3.28,1.48q2.92,0,3.48-2.56h4.76a6.974,6.974,0,0,1-2.68,4.6,8.828,8.828,0,0,1-5.56,1.76,8.434,8.434,0,0,1-6.44-2.8,10.634,10.634,0,0,1-2.68-7.48,10.511,10.511,0,0,1,2.68-7.52,8.472,8.472,0,0,1,6.44-2.72A7.542,7.542,0,0,1,269.364,21.88Zm-6.24.92A3.871,3.871,0,0,0,260,24.12a5.756,5.756,0,0,0-1.32,3.32h8.28q0-3.161-2-4.24A3.9,3.9,0,0,0,263.124,22.8Z" fill="#6ac6cc"/>
  </g>
</svg>
